# xmcd CD database file
# Copyright 1993-1996 (C) Ti Kan
#
# Track frame offsets:
#    150
#    19842
#    35275
#    56962
#    77770
#    83357
#    91502
#
# Disc length: 1445 seconds
#
# Revision: 1
# Processed by: cddbd v1.4b41PL1 Copyright (c) Steve Scherf et al.
# Submitted via: MyCDplayer 2.1.9  (wjohn@fix.net)
#
DISCID=4105a307
DTITLE=Stevie Ray Vaughan - Pride And Joy: Live 1984-1989 - Disc 1
DYEAR=1900
DGENRE=
TTITLE0=Testify
TTITLE1=Mary Had A Little Lamb
TTITLE2=Couldn't Stand The Weather
TTITLE3=Pride And Joy
TTITLE4=Ain't Gone 'N' Give up On Love
TTITLE5=Scuttlebuttin'
TTITLE6=Dirty Pool
EXTD=
EXTT0=
EXTT1=
EXTT2=
EXTT3=
EXTT4=
EXTT5=
EXTT6=
PLAYORDER=
